<?xml version="1.0" standalone="no"?>
<!DOCTYPE svg PUBLIC "-//W3C//DTD SVG 20010904//EN"
 "http://www.w3.org/TR/2001/REC-SVG-20010904/DTD/svg10.dtd">
<svg version="1.0" xmlns="http://www.w3.org/2000/svg"
 width="940.000000pt" height="940.000000pt" viewBox="0 0 940.000000 940.000000"
 preserveAspectRatio="xMidYMid meet">
<metadata>
Created by potrace 1.14, written by Peter Selinger 2001-2017
</metadata>
<g transform="translate(0.000000,940.000000) scale(0.100000,-0.100000)"
fill="#000000" stroke="none">
<path d="M5447 8425 c-55 -21 -85 -48 -135 -123 -63 -94 -187 -234 -349 -393
-172 -169 -349 -329 -364 -329 -6 0 -37 22 -70 49 -181 152 -320 298 -527 553
-190 234 -175 228 -542 228 -169 0 -289 -4 -306 -10 -90 -35 -63 -144 64 -257
177 -156 465 -387 731 -587 290 -217 333 -240 461 -252 173 -16 271 46 830
527 234 201 464 441 484 506 11 36 -18 80 -62 92 -52 15 -170 12 -215 -4z"/>
<path d="M4175 7063 c-342 -30 -682 -144 -916 -309 -275 -193 -513 -545 -599
-883 -64 -256 -66 -577 -5 -810 56 -216 198 -468 337 -596 122 -113 215 -171
430 -268 301 -136 466 -185 1118 -327 228 -50 457 -102 508 -116 219 -59 489
-167 617 -246 128 -80 264 -253 322 -412 42 -114 55 -184 60 -335 7 -181 -6
-287 -49 -411 -118 -338 -384 -576 -764 -683 -140 -39 -236 -50 -429 -50 -317
1 -554 43 -821 146 -380 147 -693 427 -869 777 -48 96 -107 251 -135 360 -30
116 -59 163 -110 184 -66 26 -116 21 -152 -15 l-31 -30 7 -107 c15 -259 18
-866 6 -1138 -14 -311 -13 -315 45 -340 45 -18 138 -18 175 1 33 17 44 46 60
160 16 110 45 230 82 341 l30 94 80 -73 c408 -371 701 -547 1043 -627 175 -41
270 -51 521 -57 360 -8 557 16 809 98 375 123 701 363 891 655 167 257 250
527 275 888 26 367 -27 658 -168 926 -151 288 -330 453 -652 599 -312 142
-423 175 -1011 301 -653 139 -969 233 -1218 359 -101 52 -151 87 -217 150
-132 127 -189 265 -202 488 -14 258 72 518 230 690 94 103 280 217 430 263
275 85 681 91 989 14 252 -63 445 -157 653 -320 231 -181 388 -379 525 -661
79 -163 100 -183 183 -183 51 0 84 12 104 39 15 20 16 134 3 272 -6 57 -14
287 -18 511 -7 404 -7 408 -30 430 -17 18 -36 23 -89 26 -88 5 -119 -15 -128
-86 -23 -161 -56 -257 -118 -340 l-25 -33 -63 72 c-230 259 -631 493 -984 575
-146 33 -258 43 -475 42 -118 -1 -233 -3 -255 -5z"/>
</g>
</svg>
