<svg xmlns="http://www.w3.org/2000/svg" xml:space="preserve" viewBox="0 0 64 64"><path fill="#FCDA4F" d="M32 0c17.7 0 32 14.3 32 32S49.7 64 32 64 0 49.7 0 32 14.3 0 32 0z"/><path fill="#9B655C" d="M47 18.5c0-2.1-1.5-3.5-3.6-3.5h-26C15 15 13 16.7 13 19.2V27h34v-8.5z"/><path fill="#CFF28B" d="M16 18.5h29V37H16z"/><path fill="#4EB550" d="M38.4 19.8H17.3V35.7H43.7V19.8h-5.3zm4 10.8c-1.8.5-3.1 1.8-3.7 3.5H22.3c-.5-1.7-1.9-3.1-3.7-3.5v-5.7c1.8-.5 3.1-1.8 3.7-3.5h16.4c.5 1.7 1.9 3.1 3.7 3.5v5.7z"/><circle cx="30.5" cy="27.7" r="5.3" fill="#4EB550"/><path fill="#C18476" d="M13 19c0 2.5 1.9 4.5 4.3 4.5h27.1c2.5 0 4.5 2.1 4.5 4.7v16.3c0 2.6-2.3 4.4-4.8 4.4H17.9c-2.5 0-4.9-1.8-4.9-4.4V19z"/><path fill="#9B655C" d="M51 38.6c0 .8-.6 1.4-1.3 1.4h-5.3c-2 0-3.6-1.8-3.6-3.9 0-2.2 1.6-3.9 3.6-3.9h5.3c.7 0 1.3.6 1.3 1.4v5z"/><circle cx="45.1" cy="36.1" r="1.9" fill="#D3E2F4"/><path fill="#DDB699" d="M44 27.5h-2c-.3 0-.5-.2-.5-.5s.2-.5.5-.5h2c.3 0 .5.2.5.5s-.2.5-.5.5zm-5 0h-2c-.3 0-.5-.2-.5-.5s.2-.5.5-.5h2c.3 0 .5.2.5.5s-.2.5-.5.5zm-5 0h-2c-.3 0-.5-.2-.5-.5s.2-.5.5-.5h2c.3 0 .5.2.5.5s-.2.5-.5.5zm-5 0h-2c-.3 0-.5-.2-.5-.5s.2-.5.5-.5h2c.3 0 .5.2.5.5s-.2.5-.5.5zm-5 0h-2c-.3 0-.5-.2-.5-.5s.2-.5.5-.5h2c.3 0 .5.2.5.5s-.2.5-.5.5zm-5 0h-2c-.3 0-.5-.2-.5-.5s.2-.5.5-.5h2c.3 0 .5.2.5.5s-.2.5-.5.5zM44 46h-2c-.3 0-.5-.2-.5-.5s.2-.5.5-.5h2c.3 0 .5.2.5.5s-.2.5-.5.5zm-5 0h-2c-.3 0-.5-.2-.5-.5s.2-.5.5-.5h2c.3 0 .5.2.5.5s-.2.5-.5.5zm-5 0h-2c-.3 0-.5-.2-.5-.5s.2-.5.5-.5h2c.3 0 .5.2.5.5s-.2.5-.5.5zm-5 0h-2c-.3 0-.5-.2-.5-.5s.2-.5.5-.5h2c.3 0 .5.2.5.5s-.2.5-.5.5zm-5 0h-2c-.3 0-.5-.2-.5-.5s.2-.5.5-.5h2c.3 0 .5.2.5.5s-.2.5-.5.5zm-5 0h-2c-.3 0-.5-.2-.5-.5s.2-.5.5-.5h2c.3 0 .5.2.5.5s-.2.5-.5.5z"/></svg>
