<svg xmlns="http://www.w3.org/2000/svg" xml:space="preserve" viewBox="0 0 64 64"><path fill="#A986E2" d="M32 0c17.7 0 32 14.3 32 32S49.7 64 32 64 0 49.7 0 32 14.3 0 32 0z"/><path fill="#FFF" d="M51.6 31.4c.3.4.3.8 0 1.2C49.8 35 40.6 44 32 44s-17.8-9-19.6-11.4c-.3-.4-.3-.8 0-1.2C14.2 29 23.4 20 32 20s17.8 9 19.6 11.4z"/><circle cx="32" cy="32" r="10" fill="#6DC3F7"/><circle cx="32" cy="32" r="6" fill="#2D414C"/><circle cx="30" cy="33.9" r="1.5" fill="#FFF"/><circle cx="35.6" cy="27.9" r="2.3" fill="#FFF"/></svg>
