<svg xmlns="http://www.w3.org/2000/svg" xml:space="preserve" viewBox="0 0 64 64"><path fill="#316CFF" d="M32 0c17.7 0 32 14.3 32 32S49.7 64 32 64 0 49.7 0 32 14.3 0 32 0z"/><path fill="#FFF" d="M40 26c0 3.1-1 6-2.7 8.3L40 37l-3 3-2.7-2.7C32 39 29.1 40 26 40c-7.7 0-14-6.3-14-14s6.3-14 14-14 14 6.3 14 14z"/><path fill="#68B2EA" d="M26 14.9c6.1 0 11.1 5 11.1 11.1s-5 11.1-11.1 11.1-11.1-5-11.1-11.1 5-11.1 11.1-11.1z"/><path fill="#FFEA29" d="m44 40-4 4-4.8-4.8.6-.4 3-3 .4-.6z"/><path fill="#2C2C3D" d="M50 50c-1.1 1.1-2.9 1.1-4 0l-8-8 4-4 8 8c1.1 1.1 1.1 2.9 0 4z"/><path fill="#FFF" d="M24.1 17.3c.5 0 1 .4 1 1 0 .5-.4 1-1 1-2.3 0-4.8 2.5-4.8 4.8 0 .5-.4 1-1 1-.5 0-1-.4-1-1 0-3.4 3.3-6.8 6.8-6.8z"/></svg>
