<svg xmlns="http://www.w3.org/2000/svg" xml:space="preserve" viewBox="0 0 64 64"><path fill="#EAEAEA" d="M32 0c17.7 0 32 14.3 32 32S49.7 64 32 64 0 49.7 0 32 14.3 0 32 0z"/><path fill="#3E80C1" d="M38.5 23.1c8.8 0 16 5.4 16 12 0 2.9-1.4 5.6-3.7 7.7.3 1 .8 2.3 1.8 3.5.6.7 0 1.7-.9 1.6-3-.3-5.4-1.1-7.1-1.8-1.9.6-4 .9-6.2.9-8.8 0-16-5.4-16-12 .1-6.5 7.3-11.9 16.1-11.9z"/><path fill="#60A1EF" d="M25.5 16c-8.8 0-16 5.4-16 12 0 2.9 1.4 5.6 3.7 7.7-.3 1-.8 2.3-1.8 3.5-.6.7 0 1.7.9 1.6 3-.3 5.4-1.1 7.1-1.8 1.9.6 4 .9 6.2.9 8.8 0 16-5.4 16-12-.1-6.5-7.3-11.9-16.1-11.9z"/><circle cx="18.5" cy="28" r="2" fill="#FFF"/><circle cx="25.5" cy="28" r="2" fill="#FFF"/><circle cx="32.5" cy="28" r="2" fill="#FFF"/></svg>
