<svg xmlns="http://www.w3.org/2000/svg" xml:space="preserve" viewBox="0 0 64 64"><path fill="#5DE2AF" d="M32 0c17.7 0 32 14.3 32 32S49.7 64 32 64 0 49.7 0 32 14.3 0 32 0z"/><path fill="#FFF" d="M42 53H22c-1.1 0-2-.9-2-2V12c0-1.1.9-2 2-2h20c1.1 0 2 .9 2 2v39c0 1.1-.9 2-2 2z"/><path fill="#4F617F" d="M22.1 15h20v31h-20z"/><path fill="#B2C5CE" d="M35.5 13h-5c-.3 0-.5-.2-.5-.5s.2-.5.5-.5h5c.3 0 .5.2.5.5s-.2.5-.5.5z"/><circle cx="28.5" cy="12.5" r=".5" fill="#B2C5CE"/><path fill="#B2C5CE" d="M32 51.8c-1.2 0-2.2-1-2.2-2.2s1-2.2 2.2-2.2 2.2 1 2.2 2.2-1 2.2-2.2 2.2zm0-4c-1 0-1.8.8-1.8 1.8s.8 1.8 1.8 1.8 1.8-.8 1.8-1.8-.8-1.8-1.8-1.8z"/><path fill="#6A80A0" d="M34.7 30.3c0-1.3 1-1.9 1.1-1.9-.6-.9-1.5-1-1.8-1-.8-.1-1.5.5-1.9.5-.4 0-1-.5-1.6-.4-.8 0-1.6.5-2 1.3-.9 1.5-.2 3.8.6 5 .4.6.9 1.3 1.5 1.3s.9-.4 1.6-.4c.7 0 1 .4 1.6.4.7 0 1.1-.6 1.5-1.2.5-.7.7-1.4.7-1.4 0-.2-1.3-.7-1.3-2.2zM33.4 26.6c.3-.4.6-1 .5-1.6-.5 0-1.1.3-1.4.8-.3.4-.6 1-.5 1.5.5 0 1.1-.3 1.4-.7z"/></svg>
