<svg xmlns="http://www.w3.org/2000/svg" xml:space="preserve" viewBox="0 0 64 64"><path fill="#56CC94" d="M32 0c17.7 0 32 14.3 32 32S49.7 64 32 64 0 49.7 0 32 14.3 0 32 0z"/><path fill="#5C7A93" d="M21 22h-4c-.6 0-1-.4-1-1v-2c0-.6.4-1 1-1h4c.6 0 1 .4 1 1v2c0 .6-.4 1-1 1z"/><path fill="#F9C646" d="M23 24h28v21H23z"/><path fill="#FCE06B" d="M46 23H29l2.7-5.3c.2-.4.6-.7 1.1-.7h9.4c.5 0 .9.3 1.1.7L46 23z"/><path fill="#F2F2F2" d="M51 26H23v-4h25.5c1.4 0 2.5 1.3 2.5 2.6V26z"/><path fill="#FF6161" d="M28.5 27.5c-.8 0-1.5-.7-1.5-1.5s.7-1.5 1.5-1.5 1.5.7 1.5 1.5-.7 1.5-1.5 1.5z"/><path fill="#F2F2F2" d="M22 47v-4h29v1.9c0 1.4-1.1 2.1-2.5 2.1H22z"/><path fill="#FFF" d="M34.5 25.7c1.1-.5 2.3-.7 3.5-.7 1.3 0 2.4.3 3.5.7 3.2 1.4 5.5 4.6 5.5 8.3 0 5-4 9-9 9s-9-4.1-9-9c0-3.7 2.3-6.9 5.5-8.3z"/><path fill="#385784" d="M31 34c0-3.9 3.1-7 7-7s7 3.1 7 7-3.1 7-7 7-7-3.1-7-7z"/><path fill="#FFF" d="M21.6 19.7h.6c1.4 0 2.5 1.1 2.5 2.5V26H13v-3.8c0-1.3 1.1-2.5 2.4-2.5H21.6zM24.6 44.9c0 1.4-1.1 2.1-2.5 2.1h-6.7c-1.3 0-2.4-.8-2.4-2.1V41h11.6V44.9z"/><path fill="#FCE06B" d="M24.6 24v18H13V24z"/><path fill="#5083B5" d="M38 39c-2.8 0-5-2.2-5-5s2.2-5 5-5 5 2.2 5 5-2.2 5-5 5zm0-8.5c-1.9 0-3.5 1.6-3.5 3.5s1.6 3.5 3.5 3.5 3.5-1.6 3.5-3.5-1.6-3.5-3.5-3.5z"/><circle cx="37.5" cy="33" r="1.5" fill="#B2D3EA"/><circle cx="39" cy="35.5" r="1" fill="#B2D3EA"/></svg>
