<svg xmlns="http://www.w3.org/2000/svg" xml:space="preserve" viewBox="0 0 64 64"><path fill="#FFD41D" d="M32 0c17.7 0 32 14.3 32 32S49.7 64 32 64 0 49.7 0 32 14.3 0 32 0z"/><path fill="#FFF" d="M49 30H15L9 50h46l-6-20z"/><path fill="#63B0E5" d="M51.7 46.9 52 48H26l-.4-6.6z"/><path fill="#FFF4C5" d="M47 32H25l.5 7.3 6 1.3L51 44.8z"/><path fill="#54D1AD" d="m23.6 41 .4 7H12l2.8-8.8z"/><path fill="#FCDD5B" d="m51.7 46.9-.7-2.1-19.5-4.2-6-1.3L25 32h-2l.4 6.8-8-1.7-.6 2.1 8.8 1.8.4 7h2l-.4-6.6z"/><path fill="#63B0E5" d="m23 32 .4 6.8-8-1.7L17 32z"/><path fill="#E84B4B" d="M32 10c-5.5 0-10 4.7-10 10.5 0 3.1 1.7 6.5 3.7 9.5.5.7.9 1.3 1.4 2 2 2.8 4.1 5 4.9 6 .8-1 2.9-3.3 4.9-6 .5-.6.9-1.3 1.4-2 2-3 3.7-6.4 3.7-9.5C42 14.7 37.5 10 32 10zm0 13c-1.7 0-3-1.3-3-3s1.3-3 3-3 3 1.3 3 3-1.3 3-3 3z"/><path fill="#C93D3D" d="M32 15c2.8 0 5 2.2 5 5s-2.2 5-5 5-5-2.2-5-5 2.2-5 5-5zm3 5c0-1.7-1.3-3-3-3s-3 1.4-3 3 1.3 3 3 3 3-1.3 3-3z"/></svg>
