<svg xmlns="http://www.w3.org/2000/svg" xml:space="preserve" viewBox="0 0 64 64"><path fill="#316CFF" d="M32 0c17.7 0 32 14.3 32 32S49.7 64 32 64 0 49.7 0 32 14.3 0 32 0z"/><circle cx="32" cy="32" r="4" fill="#FFF"/><path fill="#FFD41D" d="M51 36.2v-8.3h-4.8c-.3-1-.7-2-1.2-3l3.4-3.4-5.9-5.9-3.4 3.4c-.9-.5-1.9-.9-3-1.2V13h-8.3v4.8c-1 .3-2 .7-3 1.2l-3.4-3.4-5.9 5.9 3.4 3.4c-.5.9-.9 1.9-1.2 3H13v8.3h4.8c.3 1 .7 2 1.2 3l-3.4 3.4 5.9 5.9 3.4-3.4c.9.5 1.9.9 3 1.2V51h8.3v-4.8c1-.3 2-.7 3-1.2l3.4 3.4 5.9-5.9-3.5-3.4c.5-.9.9-1.9 1.2-3H51zM32 42c-5.5 0-10-4.5-10-10s4.5-10 10-10 10 4.5 10 10-4.5 10-10 10z"/><path fill="#F9A319" d="M32 42c-5.5 0-10-4.5-10-10s4.5-10 10-10 10 4.5 10 10-4.5 10-10 10zm0-17c-3.9 0-7 3.1-7 7s3.1 7 7 7 7-3.1 7-7-3.1-7-7-7z"/></svg>
