<svg xmlns="http://www.w3.org/2000/svg" xml:space="preserve" viewBox="0 0 64 64"><path fill="#80C4D6" d="M32 0c17.7 0 32 14.3 32 32S49.7 64 32 64 0 49.7 0 32 14.3 0 32 0z"/><path fill="#777793" d="m20 47-1.3 4.6c-.2.9.7 1.6 1.5 1.1L25 50M44 47l1.3 4.6c.2.9-.7 1.6-1.5 1.1L39 50"/><path fill="#514F6D" d="M32 14c10.5 0 19 8.5 19 19s-8.5 19-19 19-19-8.5-19-19 8.5-19 19-19z"/><path fill="#F9F7E4" d="M32 18c8.3 0 15 6.7 15 15s-6.7 15-15 15-15-6.7-15-15 6.7-15 15-15z"/><path fill="#FCDA4F" d="M22 14.1 12.1 24c-2.7-2.7-2.7-7.2 0-9.9s7.2-2.8 9.9 0zM42 14.1l9.9 9.9c2.7-2.7 2.7-7.2 0-9.9-2.7-2.8-7.2-2.8-9.9 0z"/><path fill="#BEBECC" d="M31.5 19h1v3h-1zM31.5 44h1v3h-1zM41.49 22.746l.708.708-2.121 2.12-.707-.706zM23.923 40.424l.707.707-2.12 2.122-.708-.708zM43 32.5h3v1h-3zM18 32.5h3v1h-3zM42.309 42.546l-.708.707-2.12-2.121.706-.707zM24.52 24.868l-.706.707-2.122-2.12.707-.708z"/><path fill="#514F6D" d="M38 34h-6c-.6 0-1-.4-1-1v-8c0-.6.4-1 1-1s1 .4 1 1v6c0 .6.4 1 1 1h4c.6 0 1 .4 1 1s-.4 1-1 1z"/><circle cx="32" cy="33" r="2" fill="#FCDA4F"/></svg>
